HIERARCHY
ROOT RootJoint
{
    OFFSET   0.000000   0.000000   0.000000
    CHANNELS 6 Xposition Yposition Zposition Xrotation Yrotation Zrotation
    JOINT pelvis_lowerback
    {
        OFFSET   0.000000   0.093605   0.000000
        CHANNELS 3 Xrotation Yrotation Zrotation
        JOINT lowerback_torso
        {
            OFFSET   0.000000   0.100000   0.000000
            CHANNELS 3 Xrotation Yrotation Zrotation
            JOINT torso_head
            {
                OFFSET   0.000000   0.282350   0.000000
                CHANNELS 3 Xrotation Yrotation Zrotation
                End Site
                {
                    OFFSET   0.000000   0.192650   0.000000
                }
            }
            JOINT rTorso_Clavicle
            {
                OFFSET  -0.001000   0.157500   0.000000
                CHANNELS 3 Xrotation Yrotation Zrotation
                JOINT rShoulder
                {
                    OFFSET  -0.117647   0.000000   0.000000
                    CHANNELS 3 Xrotation Yrotation Zrotation
                    JOINT rElbow
                    {
                        OFFSET  -0.245000   0.000000   0.000000
                        CHANNELS 3 Xrotation Yrotation Zrotation
                        JOINT rWrist
                        {
                            OFFSET  -0.240000   0.000000   0.000000
                            CHANNELS 3 Xrotation Yrotation Zrotation
                            End Site
                            {
                                OFFSET  -0.116353  -0.002500   0.000000
                            }
                        }
                    }
                }
            }
            JOINT lTorso_Clavicle
            {
                OFFSET   0.001000   0.157500   0.000000
                CHANNELS 3 Xrotation Yrotation Zrotation
                JOINT lShoulder
                {
                    OFFSET   0.117647   0.000000   0.000000
                    CHANNELS 3 Xrotation Yrotation Zrotation
                    JOINT lElbow
                    {
                        OFFSET   0.245000   0.000000   0.000000
                        CHANNELS 3 Xrotation Yrotation Zrotation
                        JOINT lWrist
                        {
                            OFFSET   0.240000   0.000000   0.000000
                            CHANNELS 3 Xrotation Yrotation Zrotation
                            End Site
                            {
                                OFFSET   0.116353  -0.002500   0.000000
                            }
                        }
                    }
                }
            }
        }
    }
    JOINT rHip
    {
        OFFSET  -0.100000  -0.051395   0.000000
        CHANNELS 3 Xrotation Yrotation Zrotation
        JOINT rKnee
        {
            OFFSET   0.000000  -0.410000   0.000000
            CHANNELS 3 Xrotation Yrotation Zrotation
            JOINT rAnkle
            {
                OFFSET   0.000000  -0.390000   0.000000
                CHANNELS 3 Xrotation Yrotation Zrotation
                JOINT rToeJoint
                {
                    OFFSET   0.000000  -0.050000   0.130000
                    CHANNELS 3 Xrotation Yrotation Zrotation
                    End Site
                    {
                        OFFSET  -0.010000   0.002000   0.060000
                    }
                }
            }
        }
    }
    JOINT lHip
    {
        OFFSET   0.100000  -0.051395   0.000000
        CHANNELS 3 Xrotation Yrotation Zrotation
        JOINT lKnee
        {
            OFFSET   0.000000  -0.410000   0.000000
            CHANNELS 3 Xrotation Yrotation Zrotation
            JOINT lAnkle
            {
                OFFSET   0.000000  -0.390000   0.000000
                CHANNELS 3 Xrotation Yrotation Zrotation
                JOINT lToeJoint
                {
                    OFFSET   0.000000  -0.050000   0.130000
                    CHANNELS 3 Xrotation Yrotation Zrotation
                    End Site
                    {
                        OFFSET   0.010000   0.002000   0.060000
                    }
                }
            }
        }
    }
}
MOTION
Frames: 10
Frame Time:   0.008333
 -2.753229   0.902036   4.089475  -7.953127  15.471675   1.093819   3.663989  -0.979041  -2.835304  -1.147460  -4.388208  -0.655159  -0.089088  -3.273886   1.446924  -4.741633   6.438588  -4.881071 -23.773422   4.367061  19.394021   0.000556  71.445967  -0.001293  -1.281205   5.843176  -6.030581  -4.568965 -12.830876   4.782158 -19.198090 -23.208479 -28.978253  -0.009718 -86.193795  -0.009282  -1.145594  -7.291258   0.792938  -2.624700  -2.879379  -5.601090  21.641408   0.003662  -0.002746 -11.227164  -4.166621   0.541030   0.006259   0.000156   0.000115  -9.464198  -4.358637  14.467901  30.731628   0.003695   0.002249  -8.213212   1.692195   1.011719  -2.940075   0.002002   0.003379
 -2.756209   0.902872   4.090292  -8.012588  15.565740   1.175896   3.766852  -0.911145  -2.841011  -1.142698  -4.333247  -0.684151  -0.050249  -3.440171   1.526393  -4.799562   6.412347  -4.908366 -23.828101   4.191390  19.535703   0.000446  71.443494  -0.001040  -1.306430   5.821024  -6.018536  -4.592118 -12.606479   4.800229 -19.154570 -23.104411 -29.041607  -0.012277 -86.493685  -0.011744  -1.171242  -7.246965   0.685220  -2.361966  -2.931605  -5.450051  21.277972   0.003498  -0.002596 -11.043238  -4.261132   0.648318   0.023552   0.000080   0.000092  -9.520066  -4.414172  13.872740  31.095963   0.004435   0.001093  -8.769354   1.427675   0.880236  -2.799626   0.002404   0.002242
 -2.758995   0.903685   4.091047  -8.053725  15.627448   1.242205   3.850278  -0.836253  -2.832635  -1.140382  -4.267594  -0.699599  -0.011564  -3.599400   1.605599  -4.847506   6.374851  -4.924992 -23.871710   4.017586  19.672953   0.000357  71.441463  -0.000837  -1.331391   5.808424  -5.990067  -4.607055 -12.362146   4.815069 -19.102546 -22.989120 -29.096290  -0.014124 -86.780190  -0.013485  -1.196920  -7.244672   0.576552  -2.115752  -2.965877  -5.300749  20.896690   0.003369  -0.002431 -10.844244  -4.338256   0.739284   0.029500   0.000049   0.000074  -9.560766  -4.459383  13.216042  31.471430   0.005237  -0.000081  -9.289930   1.175222   0.753335  -2.686882   0.002622   0.001381
 -2.761662   0.904425   4.091736  -8.079803  15.678818   1.278331   3.922529  -0.761716  -2.807635  -1.140740  -4.200456  -0.697043   0.025012  -3.748282   1.682293  -4.889293   6.331117  -4.934685 -23.908323   3.847791  19.802554   0.000285  71.436939  -0.000679  -1.356786   5.785239  -5.957394  -4.620735 -12.119221   4.832322 -19.050084 -22.872200 -29.141886  -0.015357 -87.046145  -0.014617  -1.221585  -7.240268   0.475992  -1.890971  -2.996543  -5.133043  20.519408   0.003245  -0.002261 -10.641832  -4.406244   0.819523   0.025239   0.000049   0.000059  -9.591953  -4.489665  12.539008  31.833822   0.005945  -0.001076  -9.775752   0.939482   0.632129  -2.583652   0.002770   0.000727
 -2.764247   0.905073   4.092363  -8.094411  15.728549   1.282716   3.987302  -0.690644  -2.768886  -1.142517  -4.136031  -0.678905   0.059628  -3.887221   1.755955  -4.926127   6.284524  -4.938434 -23.939488   3.683850  19.925066   0.000227  71.430539  -0.000555  -1.382519   5.750997  -5.923788  -4.635411 -11.885523   4.852397 -19.000400 -22.758582 -29.180074  -0.016232 -87.293094  -0.015414  -1.245103  -7.228362   0.384828  -1.688388  -3.028503  -4.942412  20.157521   0.003113  -0.002092 -10.442020  -4.468810   0.894941   0.011791   0.000068   0.000047  -9.613850  -4.507683  11.859357  32.176776   0.006506  -0.001857 -10.229309   0.719793   0.516646  -2.488336   0.002858   0.000245
 -2.766770   0.905630   4.092933  -8.100106  15.779942   1.257294   4.046368  -0.624224  -2.720163  -1.144797  -4.075891  -0.648812   0.092410  -4.016848   1.826220  -4.958537   6.237210  -4.936733 -23.965996   3.526843  20.041366   0.000178  71.422972  -0.000456  -1.408243   5.708848  -5.889073  -4.651336 -11.664225   4.874341 -18.954477 -22.650560 -29.212696  -0.016952 -87.522953  -0.016090  -1.267472  -7.212056   0.301982  -1.507153  -3.063397  -4.728921  19.815776   0.002970  -0.001928 -10.247804  -4.527580   0.967467  -0.009285   0.000099   0.000037  -9.626282  -4.515676  11.186700  32.499289   0.006909  -0.002438 -10.652808   0.515211   0.406826  -2.400149   0.002892  -0.000101
 -2.769244   0.906099   4.093449  -8.098560  15.834093   1.205100   4.100730  -0.562785  -2.665149  -1.147075  -4.020481  -0.610328   0.123385  -4.137784   1.892868  -4.986942   6.190483  -4.930174 -23.988437   3.377317  20.152090   0.000137  71.414749  -0.000375  -1.433678   5.661604  -5.852625  -4.668130 -11.456429   4.897091 -18.912381 -22.549048 -29.241213  -0.017666 -87.737280  -0.016797  -1.288749  -7.194292   0.225830  -1.345911  -3.101570  -4.494444  19.495445   0.002819  -0.001771 -10.060341  -4.583340   1.037902  -0.036511   0.000135   0.000029  -9.629425  -4.515446  10.526919  32.801988   0.007164  -0.002845 -11.048258   0.324767   0.302558  -2.318490   0.002880  -0.000342
 -2.771397   0.906647   4.093964  -8.096873  15.865106   1.192977   4.126741  -0.524544  -2.630101  -1.128323  -3.964676  -0.570426   0.167707  -4.284659   1.991078  -5.009963   6.138124  -4.916207 -24.001576   3.238420  20.271088   0.000116  71.424374  -0.000288  -1.480117   5.643031  -5.754989  -4.646268 -11.173305   4.902447 -18.900882 -22.403522 -29.255399  -0.025706 -88.121413  -0.024647  -1.336170  -7.104463   0.079179  -1.163621  -3.095830  -4.319558  19.136132   0.002669  -0.001710  -9.853882  -4.655783   1.124307  -0.067580   0.000170   0.000023  -9.543743  -4.665308   9.732874  33.048665   0.007026  -0.003484 -11.545354  -0.104184   0.121850  -2.240305   0.002929  -0.000832
 -2.773378   0.907165   4.094418  -8.079254  15.881548   1.166510   4.137515  -0.484597  -2.580465  -1.116501  -3.905273  -0.517937   0.213260  -4.424217   2.087747  -5.028948   6.078004  -4.901970 -24.010019   3.101293  20.381270   0.000097  71.432107  -0.000218  -1.525704   5.623815  -5.648750  -4.627562 -10.883162   4.909775 -18.887571 -22.257177 -29.263364  -0.035127 -88.492066  -0.033843  -1.382469  -7.082735  -0.054871  -0.998406  -3.081506  -4.146422  18.771359   0.002527  -0.001632  -9.642849  -4.719352   1.197330  -0.097733   0.000189   0.000018  -9.452532  -4.805412   8.915064  33.283889   0.006908  -0.003996 -12.012346  -0.508455  -0.051822  -2.179724   0.002841  -0.001094
 -2.775243   0.907622   4.094809  -8.050879  15.895882   1.118248   4.140734  -0.445901  -2.516723  -1.110910  -3.847939  -0.452230   0.256777  -4.554595   2.180652  -5.045563   6.014453  -4.886487 -24.015791   2.967491  20.483382   0.000080  71.437144  -0.000167  -1.570483   5.594836  -5.547374  -4.613707 -10.603047   4.922089 -18.875386 -22.115506 -29.265075  -0.046825 -88.838653  -0.045332  -1.426661  -7.074326  -0.173138  -0.851132  -3.068019  -3.962694  18.415325   0.002387  -0.001541  -9.433677  -4.777416   1.263685  -0.128433   0.000202   0.000014  -9.360975  -4.928147   8.102896  33.508557   0.006793  -0.004342 -12.449227  -0.885206  -0.217639  -2.124309   0.002732  -0.001247
